<?xml version="1.0" encoding="UTF-8"?>
<svg id="Layer_1" data-name="Layer 1" xmlns="http://www.w3.org/2000/svg" viewBox="0 0 306.54 69.46">
  <defs>
    <style>
      .cls-1 {
        fill: #fcee21;
      }

      .cls-2 {
        fill: #fff;
      }
    </style>
  </defs>
  <g>
    <path class="cls-2" d="M184.48,20.93c3.62,0,6.36,1.51,8.31,3.79,1.9-2.29,4.57-3.79,7.97-3.79,5.8,0,10.76,4.07,10.76,10.93v16.67h-6.97v-16.17c0-2.62-1.62-4.63-4.24-4.63s-4.24,2.01-4.24,4.57v16.23h-6.97v-16.23c0-2.56-1.62-4.57-4.18-4.57s-4.24,2.01-4.24,4.57v16.23h-6.97v-16.67c0-6.91,5.02-10.93,10.76-10.93Z"/>
    <path class="cls-2" d="M212.8,34.59c0-7.64,5.69-13.6,13.66-13.6,7.92-.06,13.05,5.58,13.05,11.65,0,2.12-.72,4.35-1.9,6.13h-7.25c1.23-1.73,1.95-3.4,1.95-5.24,0-3.35-2.51-5.85-5.85-5.85-3.9,0-6.58,3.01-6.58,6.8s2.96,7.42,8.81,7.42h10.76l-1.9,6.63h-9.59c-8.86,0-15.17-5.97-15.17-13.94Z"/>
    <path class="cls-2" d="M268.89,10.78v24.42c0,8.48-5.85,14-13.83,14s-13.99-5.58-13.99-13.72,5.91-13.88,14.5-13.88h1.62l1.95,6.64h-3.01c-5.02,0-7.97,3.23-7.97,7.25s2.9,6.97,6.86,6.97,6.91-2.68,6.91-7.53V10.78h6.97Z"/>
    <path class="cls-2" d="M269.62,14.8c0-2.23,1.78-3.9,4.07-3.9s4.13,1.67,4.13,3.9c0,2.34-1.73,4.01-4.13,4.01s-4.07-1.67-4.07-4.01ZM270.24,21.6h6.97v26.93h-6.97v-26.93Z"/>
    <path class="cls-2" d="M278.72,34.65c0-8.14,6.08-13.72,14-13.72s13.83,5.52,13.83,13.99v13.6h-6.97v-13.33c0-4.85-3.07-7.53-6.91-7.53s-6.86,2.96-6.86,6.97,2.96,7.25,7.97,7.25h3.01l-1.95,6.63h-1.62c-8.59,0-14.5-5.97-14.5-13.88Z"/>
  </g>
  <g>
    <path class="cls-2" d="M11.99,28.23H1.34v-6.64h22.19l-11.93,20.3h11.93l-1.9,6.63H0l11.99-20.29Z"/>
    <path class="cls-2" d="M91.17,20.93c3.62,0,6.36,1.51,8.31,3.79,1.9-2.29,4.57-3.79,7.97-3.79,5.8,0,10.76,4.07,10.76,10.93v16.67h-6.97v-16.17c0-2.62-1.62-4.63-4.24-4.63s-4.24,2.01-4.24,4.57v16.23h-6.97v-16.23c0-2.56-1.62-4.57-4.18-4.57s-4.24,2.01-4.24,4.57v16.23h-6.97v-16.67c0-6.91,5.02-10.93,10.76-10.93Z"/>
    <path class="cls-2" d="M56.55,30.64c-1-.98-2.01-1.97-3.03-2.94-.13-.12-.15-.18-.06-.34.14-.27,2.36-2.4,2.75-2.75,7.37-6.52,19.03-3.99,22.36,5.36,4.85,13.63-11.37,24.58-22.43,14.82-5.35-4.72-10.15-10.65-15.45-15.49-3.37-2.62-8.33-1.71-10.38,2.08-2.92,5.4,1.97,11.64,7.89,10.05,2.41-.65,3.71-2.6,5.43-4.22h.27c.43.44.91,1.06,1.34,1.48.79.79,2.23,1.92,2.88,2.75.14.17.34.37.33.61-.01.47-3.75,3.74-4.4,4.17-7.34,4.92-17.58,1.67-20.6-6.62-4.97-13.65,11.31-24.73,22.39-14.92,5.3,4.7,10.07,10.55,15.32,15.36,5.19,4.26,12.76-.39,11.16-7.02-1.17-4.85-7.14-6.84-11.02-3.71-.54.44-2.56,2.77-2.91,2.87-.51.14-1.43-1.13-1.84-1.53Z"/>
  </g>
  <g>
    <g>
      <path class="cls-1" d="M176.7,11.74l-15.53,21.78,23.81,35.94h-27.69l-7.36-10.11c-.06-.38,3.25-4.74,3.81-5.34l6.8,9.29c4.12.12,8.32.28,12.41-.1l-19.9-29.25c5.07-7.52,10.8-14.62,15.76-22.21h7.88Z"/>
      <polygon class="cls-1" points="89.38 69.46 93.46 63.39 131.95 63.3 142.32 48.93 137.74 42.36 141.52 36.98 150.03 48.82 135.21 69.46 89.38 69.46"/>
    </g>
    <g>
      <path class="cls-1" d="M198.77,0l-4.14,5.77-.69.49-35.53.05c-11.54,17.25-23.65,34.13-35.12,51.42h-7.69L155.31,0h43.46Z"/>
      <path class="cls-1" d="M137.18,0l5.08,7.29c.17.26.16.44.05.71-.16.42-3,4.53-3.36,4.89-.16.16-.18.28-.48.21l-4.64-6.85h-14.29l12.14,17.01c-1.02,1.83-2.33,3.46-3.42,5.24-.09.15.06.33-.33.25L107.32,0h29.86Z"/>
    </g>
  </g>
</svg>